<?xml version="1.0" encoding="UTF-8" standalone="no"?>
<!-- Created with Inkscape (http://www.inkscape.org/) -->

<svg
   width="135.46667mm"
   height="135.46667mm"
   viewBox="0 0 135.46667 135.46667"
   version="1.1"
   id="svg5"
   inkscape:version="1.1.2 (0a00cf5339, 2022-02-04)"
   sodipodi:docname="icon.svg"
   xmlns:inkscape="http://www.inkscape.org/namespaces/inkscape"
   xmlns:sodipodi="http://sodipodi.sourceforge.net/DTD/sodipodi-0.dtd"
   xmlns:xlink="http://www.w3.org/1999/xlink"
   xmlns="http://www.w3.org/2000/svg"
   xmlns:svg="http://www.w3.org/2000/svg">
  <sodipodi:namedview
     id="namedview7"
     pagecolor="#ffffff"
     bordercolor="#666666"
     borderopacity="1.0"
     inkscape:pageshadow="2"
     inkscape:pageopacity="0.0"
     inkscape:pagecheckerboard="0"
     inkscape:document-units="mm"
     showgrid="false"
     inkscape:zoom="0.3261137"
     inkscape:cx="562.68719"
     inkscape:cy="364.90341"
     inkscape:window-width="1920"
     inkscape:window-height="1011"
     inkscape:window-x="0"
     inkscape:window-y="32"
     inkscape:window-maximized="1"
     inkscape:current-layer="layer1" />
  <defs
     id="defs2">
    <linearGradient
       inkscape:collect="always"
       id="linearGradient10740">
      <stop
         style="stop-color:#ff829f;stop-opacity:1;"
         offset="0"
         id="stop10736" />
      <stop
         style="stop-color:#ff82cd;stop-opacity:1"
         offset="1"
         id="stop10738" />
    </linearGradient>
    <linearGradient
       inkscape:collect="always"
       xlink:href="#linearGradient10740"
       id="linearGradient10742"
       x1="109.02625"
       y1="134.73637"
       x2="108.91267"
       y2="71.313469"
       gradientUnits="userSpaceOnUse" />
  </defs>
  <g
     inkscape:label="Шар 1"
     inkscape:groupmode="layer"
     id="layer1"
     transform="translate(-77.216869,-71.323721)">
    <g
       id="g14157"
       transform="matrix(2.1394767,0,0,2.1394767,-87.986816,-81.271706)">
      <rect
         style="fill:url(#linearGradient10742);fill-opacity:1;stroke-width:2.64583;stroke-linecap:round;stroke-linejoin:bevel;paint-order:markers fill stroke"
         id="rect1052"
         width="63.317665"
         height="63.317665"
         x="77.216866"
         y="71.323715"
         ry="15.629785" />
      <path
         id="path1800"
         style="fill:#fffefe;fill-opacity:1;stroke-width:2.81655;stroke-linecap:round;stroke-linejoin:bevel;paint-order:markers fill stroke"
         d="m 107.26676,85.32178 c -3.87986,0.353475 -7.550319,1.918158 -10.491923,4.472613 l 6.153293,6.153299 c 1.27059,-0.977903 2.75932,-1.633192 4.33863,-1.909724 z m 3.7253,0.02671 v 8.793592 c 1.46395,0.312108 2.83828,0.951531 4.01996,1.87034 l 6.14425,-6.144243 c -2.84671,-2.50968 -6.39394,-4.087015 -10.16421,-4.519689 z m -16.790979,7.140064 c -2.423649,3.154328 -3.770441,7.003507 -3.842077,10.980776 h 8.663681 c 0.05992,-1.67715 0.544437,-3.31166 1.408195,-4.750534 z m 29.507669,0.09506 -6.24202,6.242469 c 0.82802,1.412177 1.2936,3.007377 1.35522,4.643247 h 8.66414 c -0.0731,-3.937279 -1.39596,-7.749388 -3.77734,-10.885716 z m -18.61805,2.503479 -0.27638,4.098391 c -1.22841,1.097156 -1.96827,2.639126 -2.05548,4.283846 h 12.32696 c -0.14936,-3.29791 -2.86332,-5.896681 -6.16461,-5.902971 z"
         sodipodi:nodetypes="cccccccccccccccccccccccccc" />
      <g
         aria-label="My BMI"
         id="text8513"
         style="font-size:15.5071px;line-height:1.25;letter-spacing:0px;stroke-width:0.387677">
        <path
           d="m 92.434362,119.47114 q -0.310142,-1.11651 -0.635791,-2.13998 -0.32565,-1.02347 -0.635792,-1.92288 -0.294634,-0.91492 -0.573762,-1.65926 -0.279128,-0.74434 -0.511735,-1.30259 -0.06203,0.8839 -0.108549,1.95389 -0.03101,1.05448 -0.07754,2.17099 -0.03101,1.11652 -0.06203,2.24853 -0.01551,1.11652 -0.03101,2.13998 h -1.333611 q 0.04652,-1.39564 0.09304,-2.80678 0.04652,-1.42665 0.108549,-2.79128 0.07754,-1.38013 0.155071,-2.68273 0.09304,-1.30259 0.201593,-2.46563 h 1.380132 q 0.279127,0.66681 0.635791,1.59723 0.356663,0.91492 0.713326,1.92288 0.372171,1.00797 0.713327,2.01593 0.341156,1.00796 0.58927,1.84534 0.248113,-0.83738 0.573762,-1.84534 0.325649,-1.00796 0.682313,-2.01593 0.356663,-1.00796 0.697819,-1.92288 0.356664,-0.93042 0.635791,-1.59723 h 1.380132 q 0.10855,1.16304 0.186086,2.46563 0.09304,1.3026 0.155071,2.68273 0.07753,1.36463 0.124056,2.79128 0.04652,1.41114 0.09304,2.80678 H 96.2491 q -0.03101,-1.02346 -0.06203,-2.15548 -0.01551,-1.13202 -0.06203,-2.26404 -0.03101,-1.14753 -0.07753,-2.21752 -0.04652,-1.08549 -0.10855,-1.9849 -0.139564,0.38767 -0.356663,0.97694 -0.201592,0.57377 -0.434199,1.25608 -0.217099,0.68231 -0.465213,1.41114 -0.232606,0.71333 -0.449706,1.38014 -0.201592,0.6668 -0.37217,1.22506 -0.155071,0.54275 -0.248114,0.8839 z"
           style="font-weight:bold;font-family:'Ubuntu Condensed';-inkscape-font-specification:'Ubuntu Condensed,  Bold';fill:#ffffff"
           id="path14018" />
        <path
           d="m 101.58354,119.26955 q 0.44971,-1.55071 0.82188,-3.11693 0.37217,-1.56621 0.71333,-3.33402 h 1.3181 q -0.23261,1.13201 -0.51173,2.23302 -0.26362,1.101 -0.55826,2.12447 -0.27913,1.02347 -0.57376,1.93839 -0.27913,0.89941 -0.52724,1.64375 -0.29464,0.8684 -0.57377,1.45767 -0.26362,0.60478 -0.58927,0.96144 -0.31014,0.37217 -0.68231,0.52724 -0.37217,0.17058 -0.883902,0.17058 -0.279128,0 -0.558256,-0.0775 -0.279128,-0.062 -0.465213,-0.13956 l 0.248114,-1.0855 q 0.403184,0.17058 0.759848,0.17058 0.449706,0 0.728829,-0.32565 0.27913,-0.32565 0.54275,-0.97695 l 0.15507,-0.38767 q -0.29463,-0.80637 -0.60477,-1.78332 -0.29464,-0.99245 -0.589273,-2.06244 -0.279128,-1.06999 -0.542748,-2.18651 -0.263621,-1.13201 -0.48072,-2.202 h 1.411141 q 0.12406,0.72883 0.29464,1.59723 0.17058,0.86839 0.35666,1.73679 0.2016,0.8684 0.40319,1.69028 0.20159,0.80637 0.38767,1.42665 z"
           style="font-weight:bold;font-family:'Ubuntu Condensed';-inkscape-font-specification:'Ubuntu Condensed,  Bold';fill:#ffffff"
           id="path14020" />
        <path
           d="m 110.36056,114.788 h 0.96144 q 1.92288,0 1.92288,-1.7368 0,-0.54275 -0.17058,-0.8839 -0.15507,-0.35667 -0.41869,-0.54275 -0.26362,-0.20159 -0.62029,-0.27913 -0.34115,-0.0775 -0.72883,-0.0775 -0.23261,0 -0.48072,0.0155 -0.23261,0.0155 -0.46521,0.0465 z m 0,1.11651 v 3.87677 q 0.29463,0.0465 0.57376,0.0775 0.29463,0.031 0.57376,0.031 0.4342,0 0.82188,-0.093 0.38768,-0.093 0.6668,-0.31014 0.29464,-0.2171 0.44971,-0.58927 0.17058,-0.38768 0.17058,-0.94593 0,-0.96144 -0.52724,-1.50419 -0.51174,-0.54275 -1.61274,-0.54275 z m -1.39564,-5.53604 q 0.54275,-0.12405 1.101,-0.18608 0.57376,-0.0775 1.13202,-0.0775 0.69782,0 1.3181,0.13957 0.63579,0.12405 1.11651,0.4497 0.48072,0.31015 0.75985,0.83739 0.29464,0.51173 0.29464,1.28709 0,0.96144 -0.40319,1.58172 -0.40318,0.60478 -1.03897,0.89941 0.79086,0.31014 1.30259,0.94594 0.51174,0.63579 0.51174,1.7523 0,0.83738 -0.27913,1.41114 -0.26362,0.57377 -0.75985,0.94594 -0.49623,0.35666 -1.19404,0.52724 -0.68232,0.15507 -1.50419,0.15507 -0.54275,0 -1.13202,-0.062 -0.58927,-0.062 -1.22506,-0.18608 z"
           style="font-weight:bold;font-family:'Ubuntu Condensed';-inkscape-font-specification:'Ubuntu Condensed,  Bold';fill:#ffffff"
           id="path14022" />
        <path
           d="m 120.78133,119.47114 q -0.31014,-1.11651 -0.63579,-2.13998 -0.32565,-1.02347 -0.63579,-1.92288 -0.29464,-0.91492 -0.57377,-1.65926 -0.27913,-0.74434 -0.51173,-1.30259 -0.062,0.8839 -0.10855,1.95389 -0.031,1.05448 -0.0775,2.17099 -0.031,1.11652 -0.062,2.24853 -0.0155,1.11652 -0.031,2.13998 h -1.33361 q 0.0465,-1.39564 0.093,-2.80678 0.0465,-1.42665 0.10855,-2.79128 0.0775,-1.38013 0.15507,-2.68273 0.093,-1.30259 0.2016,-2.46563 h 1.38013 q 0.27913,0.66681 0.63579,1.59723 0.35666,0.91492 0.71333,1.92288 0.37217,1.00797 0.71332,2.01593 0.34116,1.00796 0.58927,1.84534 0.24812,-0.83738 0.57376,-1.84534 0.32565,-1.00796 0.68232,-2.01593 0.35666,-1.00796 0.69782,-1.92288 0.35666,-0.93042 0.63579,-1.59723 h 1.38013 q 0.10855,1.16304 0.18608,2.46563 0.0931,1.3026 0.15508,2.68273 0.0775,1.36463 0.12405,2.79128 0.0465,1.41114 0.093,2.80678 h -1.33361 q -0.031,-1.02346 -0.062,-2.15548 -0.0155,-1.13202 -0.062,-2.26404 -0.031,-1.14753 -0.0775,-2.21752 -0.0465,-1.08549 -0.10855,-1.9849 -0.13956,0.38767 -0.35666,0.97694 -0.20159,0.57377 -0.4342,1.25608 -0.2171,0.68231 -0.46521,1.41114 -0.23261,0.71333 -0.44971,1.38014 -0.20159,0.6668 -0.37217,1.22506 -0.15507,0.54275 -0.24811,0.8839 z"
           style="font-weight:bold;font-family:'Ubuntu Condensed';-inkscape-font-specification:'Ubuntu Condensed,  Bold';fill:#ffffff"
           id="path14024" />
        <path
           d="m 128.30227,110.2134 h 1.39564 v 10.74642 h -1.39564 z"
           style="font-weight:bold;font-family:'Ubuntu Condensed';-inkscape-font-specification:'Ubuntu Condensed,  Bold';fill:#ffffff"
           id="path14026" />
      </g>
    </g>
  </g>
</svg>
